<svg viewBox="0 0 120 120" xmlns="http://www.w3.org/2000/svg">
  <defs>
    <!-- cohesive gold‒purple gradient -->
    <linearGradient id="goldPurple" x1="0%" y1="0%" x2="100%" y2="100%">
      <stop offset="0%" stop-color="#EACD5E"/>
      <stop offset="100%" stop-color="#815FA9"/>
    </linearGradient>

    <!-- warm inner glow -->
    <radialGradient id="coreGlow" cx="50%" cy="50%" r="50%">
      <stop offset="0%" stop-color="#ffffff"/>
      <stop offset="60%" stop-color="#F8EFBF"/>
      <stop offset="100%" stop-color="#EACD5E"/>
    </radialGradient>

    <style>
      .ray {
        stroke: url(#goldPurple);
        stroke-linecap: round;
        animation: pulse 3s ease-in-out infinite;
        transform-origin: 60px 60px;
      }
      .ray.cardinal { stroke-width: 3.4; }
      .ray.diagonal { stroke-width: 2.4; }

      .node {
        fill: url(#goldPurple);
        animation: pulse 3s ease-in-out infinite;
        transform-origin: 60px 60px;
      }

      @keyframes pulse {
        0%,100% { opacity: .85; transform: scale(1); }
        50%      { opacity: 1;   transform: scale(1.05); }
      }
    </style>
  </defs>

  <!-- eight-pointed radiance with subtle organic offsets -->
  <!-- cardinal rays (slightly varied lengths) -->
  <line x1="60" y1="60" x2="60" y2="18" class="ray cardinal"/>
  <line x1="60" y1="60" x2="102" y2="60" class="ray cardinal"/>
  <line x1="60" y1="60" x2="60" y2="98" class="ray cardinal"/>
  <line x1="60" y1="60" x2="18" y2="60" class="ray cardinal"/>
  <!-- diagonal rays (soft angle & length variance) -->
  <line x1="60" y1="60" x2="90" y2="30" class="ray diagonal"/>
  <line x1="60" y1="60" x2="86" y2="90" class="ray diagonal"/>
  <line x1="60" y1="60" x2="34" y2="92" class="ray diagonal"/>
  <line x1="60" y1="60" x2="28" y2="28" class="ray diagonal"/>

  <!-- nodes with varied sizes -->
  <circle cx="60" cy="18" r="5.3"  class="node"/>
  <circle cx="102" cy="60" r="4.8" class="node"/>
  <circle cx="60" cy="98" r="5"   class="node"/>
  <circle cx="18" cy="60" r="5"   class="node"/>
  <circle cx="90" cy="30" r="3.8" class="node"/>
  <circle cx="86" cy="90" r="4.2" class="node"/>
  <circle cx="34" cy="92" r="3.6" class="node"/>
  <circle cx="28" cy="28" r="4"   class="node"/>

  <!-- concentric centre -->
  <circle cx="60" cy="60" r="18" fill="none" stroke="url(#goldPurple)" stroke-width="2.5"/>
  <circle cx="60" cy="60" r="10" fill="none" stroke="url(#goldPurple)" stroke-width="1.5" opacity=".8"/>
  <circle cx="60" cy="60" r="7"  fill="url(#coreGlow)"/>
  <circle cx="60" cy="60" r="3"  fill="#ffffff"/>
</svg>
